<!DOCTYPE svg PUBLIC "-//W3C//DTD SVG 1.1//EN" "https://www.w3.org/Graphics/SVG/1.1/DTD/svg11.dtd"><svg xmlns="http://www.w3.org/2000/svg" class="sc-kpKSZj hGvAPi graph" data-testid="graph" role="img" aria-labelledby="polymath-graph-title" width="1069" height="1976"><title id="polymath-graph-title">Workflow Studio State Machine Graph</title><g transform="translate(12,12)" class="new-look-graph"><g class="nodes"><g class="node-container" transform="translate(522.5,22)"><g><circle class="sc-imwsjW jSmbeY shape" r="22"/><text class="sc-dQEtJz iIEA-dp label"><tspan xml:space="preserve" text-anchor="middle" alignment-baseline="central">Start</tspan></text></g></g><g class="node-container" transform="translate(522.5,103.5)"><g class="sc-knuQbY ljLNUS node state Pass" data-testid="graph-Set Vars" data-state-id="Set Vars" data-state-type="Pass"><g class="new-look-state-node "><rect x="-120" y="-24.5" width="240" height="49" rx="3" ry="3"/><g class="handle" transform="translate(-120,-24.5)"><path d="M5,16 L5,34 M8,16 L8,34"/></g><g class="icon" transform="translate(-104,-24)"><rect fill="var(--color-background-container-header-etndi4, #fafafa)" x="0.0361026108" y="0.0181291967" width="48" height="48"/><line x1="47.5" y1="0.49122807" x2="47.5" y2="47.5" stroke="var(--color-board-placeholder-active-qurjro, #d5dbdb)" stroke-linecap="square"/><line x1="0.5" y1="0.49122807" x2="0.5" y2="47.5" stroke="var(--color-board-placeholder-active-qurjro, #d5dbdb)" stroke-linecap="square"/><use href="#icon-flow-pass"/></g><g class="text-lines" transform="translate(-48,-24.5)"><text transform="translate(0,17)" class="line1"><tspan xml:space="preserve" text-anchor="start">Pass state</tspan></text><text transform="translate(0,35.5)" class="line2 label"><tspan xml:space="preserve" text-anchor="start">Set Vars</tspan></text></g></g></g></g><g class="node-container" transform="translate(522.5,187.5)"><g class="sc-knuQbY ljLNUS node state Wait" data-testid="graph-Wait" data-state-id="Wait" data-state-type="Wait"><g class="new-look-state-node "><rect x="-120" y="-24.5" width="240" height="49" rx="3" ry="3"/><g class="handle" transform="translate(-120,-24.5)"><path d="M5,16 L5,34 M8,16 L8,34"/></g><g class="icon" transform="translate(-104,-24)"><rect fill="var(--color-background-container-header-etndi4, #fafafa)" x="0.0361026108" y="0.0181291967" width="48" height="48"/><line x1="47.5" y1="0.49122807" x2="47.5" y2="47.5" stroke="var(--color-board-placeholder-active-qurjro, #d5dbdb)" stroke-linecap="square"/><line x1="0.5" y1="0.49122807" x2="0.5" y2="47.5" stroke="var(--color-board-placeholder-active-qurjro, #d5dbdb)" stroke-linecap="square"/><use href="#icon-flow-wait"/></g><g class="text-lines" transform="translate(-48,-24.5)"><text transform="translate(0,17)" class="line1"><tspan xml:space="preserve" text-anchor="start">Wait state</tspan></text><text transform="translate(0,35.5)" class="line2 label"><tspan xml:space="preserve" text-anchor="start">Wait</tspan></text></g></g></g></g><g class="node-container" transform="translate(522.5,271.5)"><g class="sc-knuQbY ljLNUS node state Task" data-testid="graph-Add Unarchiving job running event" data-state-id="Add Unarchiving job running event" data-state-type="Task"><g class="new-look-state-node "><rect x="-151.5" y="-24.5" width="303" height="49" rx="3" ry="3"/><g class="handle" transform="translate(-151.5,-24.5)"><path d="M5,16 L5,34 M8,16 L8,34"/></g><g class="icon" transform="translate(-135.5,-24)"><rect fill="var(--color-background-container-header-etndi4, #fafafa)" x="0.0361026108" y="0.0181291967" width="48" height="48"/><line x1="47.5" y1="0.49122807" x2="47.5" y2="47.5" stroke="var(--color-board-placeholder-active-qurjro, #d5dbdb)" stroke-linecap="square"/><line x1="0.5" y1="0.49122807" x2="0.5" y2="47.5" stroke="var(--color-board-placeholder-active-qurjro, #d5dbdb)" stroke-linecap="square"/><use href="#icon-service-lam" aria-hidden="true"><title>Lambda</title></use></g><g class="text-lines" transform="translate(-79.5,-24.5)"><text transform="translate(0,17)" class="line1"><tspan xml:space="preserve" text-anchor="start">Lambda: Invoke</tspan></text><text transform="translate(0,35.5)" class="line2 label"><tspan xml:space="preserve" text-anchor="start">Add Unarchiving job running event</tspan></text></g></g></g></g><g class="node-container" transform="translate(522.5,475.5)"><g class="sc-knuQbY ljLNUS node state container Map" data-state-id="For each fastq id (Batched)" data-state-type="Map"><g class="new-look-state-node "><g class="bounding-box" transform="translate(0,5)"><g class="shape new-look-state-node-sub"><rect rx="3" ry="3" x="-171" y="-144.5" width="342" height="284" class="sc-dJiZtA eTNMpM"/><rect x="-110.5" y="-100.5" width="221" height="26" class="sc-dJiZtA sc-epALIP eTNMpM jGUdjs"/><svg x="-95.5" y="-104" width="25" height="25" viewBox="0 -8 25 25" xmlns="http://www.w3.org/2000/svg"><g id="Symbols" stroke="none" stroke-width="1" fill="none" fill-rule="evenodd" opacity="0.867687044"><g id="ONE-MAP---graph---inline-map" transform="translate(-55.000000, -217.000000)" fill="#687078" fill-rule="nonzero"><g id="Group-15" transform="translate(36.000000, 213.000000)"><g id="script" transform="translate(19.000000, 4.000000)"><path d="M11.60121,15.4462891 C12.5601274,15.4462891 13.2010167,15.2896753 13.5238779,14.9764478 C13.8467393,14.6632203 14.0081699,14.0388817 14.0081699,13.1034319 L14.0081699,12.7383526 C14.0081699,12.1034319 14.1135348,10.6632203 14.3242646,10.4177176 C14.5349944,10.172215 14.9129549,10.0494637 15.4581458,10.0494637 L15.8177397,10.0494637 L15.8177397,6.83676525 L15.4581458,6.83676525 C14.9129549,6.83676525 14.5349944,6.71507213 14.3242646,6.47168589 C14.1135348,6.22829964 14.0081699,4.7870298 14.0081699,4.14787636 L14.0081699,3.782797 C14.0081699,2.84734726 13.8467393,2.22406684 13.5238779,1.91295573 C13.2010167,1.60184462 12.5601274,1.44628906 11.60121,1.44628906 L9.8177397,1.44628906 L9.8177397,3.65263827 L10.519528,3.65263827 C10.9255213,3.65263827 11.1971501,3.74364356 11.3344144,3.92565414 C11.4716788,4.10766472 11.540311,5.49708271 11.540311,6.09390811 L11.540311,6.42089224 C11.540311,7.11930494 11.6340761,7.61031023 11.8216063,7.89390811 C12.0091365,8.17750599 12.3464975,8.35951658 12.8336895,8.43993986 C12.3503642,8.52882875 12.0139698,8.71718853 11.8245063,9.00501922 C11.6350428,9.29284991 11.540311,9.7838552 11.540311,10.4780351 L11.540311,10.7796224 C11.540311,11.3849134 11.4707122,12.7785642 11.3315144,12.9605748 C11.1923168,13.1425854 10.9216547,13.2335906 10.519528,13.2335906 L9.8177397,13.2335906 L9.8177397,15.4462891 L11.60121,15.4462891 Z" id="}"/><path d="M3.03295652,15.4462891 C3.99187387,15.4462891 4.63276319,15.2896753 4.95562448,14.9764478 C5.27848577,14.6632203 5.43991641,14.0388817 5.43991641,13.1034319 L5.43991641,12.7383526 C5.43991641,12.1034319 5.54528132,10.6632203 5.75601114,10.4177176 C5.96674096,10.172215 6.34470133,10.0494637 6.88989225,10.0494637 L7.24948625,10.0494637 L7.24948625,6.83676525 L6.88989225,6.83676525 C6.34470133,6.83676525 5.96674096,6.71507213 5.75601114,6.47168589 C5.54528132,6.22829964 5.43991641,4.7870298 5.43991641,4.14787636 L5.43991641,3.782797 C5.43991641,2.84734726 5.27848577,2.22406684 4.95562448,1.91295573 C4.63276319,1.60184462 3.99187387,1.44628906 3.03295652,1.44628906 L1.24948625,1.44628906 L1.24948625,3.65263827 L1.95127455,3.65263827 C2.35726778,3.65263827 2.62889659,3.74364356 2.76616097,3.92565414 C2.90342535,4.10766472 2.97205754,4.49708271 2.97205754,5.09390811 L2.97205754,5.42089224 C2.97205754,6.11930494 3.06582265,7.61031023 3.25335285,7.89390811 C3.44088306,8.17750599 3.7782441,8.35951658 4.26543598,8.43993986 C3.7821107,8.52882875 3.44571631,8.71718853 3.25625281,9.00501922 C3.0667893,9.29284991 2.97205754,9.7838552 2.97205754,10.4780351 L2.97205754,10.7796224 C2.97205754,11.3849134 2.9024587,12.7785642 2.76326102,12.9605748 C2.62406334,13.1425854 2.35340119,13.2335906 1.95127455,13.2335906 L1.24948625,13.2335906 L1.24948625,15.4462891 L3.03295652,15.4462891 Z" id="}-copy" transform="translate(4.249486, 8.446289) scale(-1, 1) translate(-4.249486, -8.446289) "/></g></g></g></g><style data-styled="true" data-styled-version="5.3.11">.ljLNUS{cursor:pointer;}/*!sc*/
data-styled.g141[id="sc-knuQbY"]{content:"ljLNUS,"}/*!sc*/
.iCktvP{stroke:#555;background-color:#555;stroke-width:1px;}/*!sc*/
data-styled.g142[id="sc-ERObt"]{content:"iCktvP,"}/*!sc*/
.gnSsyP{stroke-width:0;stroke:none;fill:#f2f3f3;}/*!sc*/
data-styled.g143[id="sc-dNsVcS"]{content:"gnSsyP,"}/*!sc*/
.fPWNMB{font-size:10px;line-height:12.5;stroke:none;}/*!sc*/
data-styled.g144[id="sc-fulCBj"]{content:"fPWNMB,"}/*!sc*/
.XhsUb{fill:var(--color-text-form-secondary-btuye6,#687078);}/*!sc*/
data-styled.g170[id="sc-deXhhX"]{content:"XhsUb,"}/*!sc*/
.iIEA-dp{font-weight:400;font-size:12px;line-height:16px;font-family:Amazon Ember,Arial,Roboto,Arial,sans-serif;text-shadow:none;fill:var(--color-text-button-primary-default-qh066v,#16191f);}/*!sc*/
data-styled.g171[id="sc-dQEtJz"]{content:"iIEA-dp,"}/*!sc*/
.jSmbeY{fill:#fff9cc;stroke:var(--color-text-form-secondary-btuye6,#687078);stroke-width:0.6px;}/*!sc*/
data-styled.g172[id="sc-imwsjW"]{content:"jSmbeY,"}/*!sc*/
.keBXOz{fill:#fff9cc;stroke:var(--color-text-form-secondary-btuye6,#687078);stroke-width:0.6px;}/*!sc*/
data-styled.g173[id="sc-kCMKrZ"]{content:"keBXOz,"}/*!sc*/
.eTNMpM{stroke:var(--color-border-control-default-ie1oqq,#687078);stroke-width:1px;fill:var(--color-background-container-content-x1dxuu,#ffffff);opacity:0.5;}/*!sc*/
.node &gt; .new-look-state-node.has-errors &gt; .bounding-box &gt; .sc-dJiZtA{stroke:var(--color-border-status-error-si9bvu,#d13212);fill:var(--color-background-status-error-qqw3y6,#fdf3f1);}/*!sc*/
.selected &gt; .node &gt; .new-look-state-node &gt; .bounding-box &gt; .sc-dJiZtA{stroke:var(--color-border-status-info-fjyzd6,#0073bb);fill:var(--color-background-status-info-60ssq8,#f1faff);}/*!sc*/
.selected &gt; .node &gt; .new-look-state-node.has-errors &gt; .bounding-box &gt; .sc-dJiZtA{stroke:var(--color-border-status-error-si9bvu,#d13212);fill:#fde0da;}/*!sc*/
data-styled.g174[id="sc-dJiZtA"]{content:"eTNMpM,"}/*!sc*/
.jGUdjs{opacity:1;}/*!sc*/
data-styled.g175[id="sc-epALIP"]{content:"jGUdjs,"}/*!sc*/
</style><style>
.new-look-state-node &gt; rect:first-of-type {
  stroke: #687078;
  stroke-width: 1px;
  fill: #FFFFFF;
}

.new-look-state-node .error-icon circle {
 stroke-linejoin: round;
}

.new-look-state-node .error-icon circle, .new-look-state-node .error-icon path {
 stroke: var(--color-border-status-error-si9bvu, #d13212);
 fill: none;
 stroke-width: 2px;
}

.new-look-state-node.has-errors &gt; rect:first-of-type {
 stroke: var(--color-border-status-error-si9bvu, #d13212);
 fill: var(--color-background-status-error-qqw3y6, #fdf3f1);
}

.new-look-state-node.has-errors &gt; .bounding-box &gt; .new-look-state-node-sub &gt; rect {
  stroke: var(--color-border-status-error-si9bvu, #d13212);
  fill: var(--color-background-status-error-qqw3y6, #fdf3f1);
}

.new-look-state-node .handle path {
  stroke: var(--color-border-dropdown-item-hover-t6obhh, #879596);
  stroke-width: 1px;
  fill: none;
}

.new-look-state-node {
  font-weight: 400;
  font-family: Amazon Ember, Arial, Roboto, Arial, sans-serif;
  text-shadow: none;
}

.new-look-state-node .line1 {
  fill: #687078;
  font-size: 12px;
}

.new-look-state-node .line2 {
  fill: #16191f;
}

.selected.node &gt; .new-look-state-node &gt; rect,
.selected.node &gt; .new-look-state-node &gt; .new-look-state-node &gt; rect,
.selected.node &gt; .new-look-state-node &gt; .bounding-box &gt; rect,
.selected.node &gt; .new-look-state-node.has-errors &gt; rect,
.selected.node &gt; .new-look-state-node.has-errors &gt; .bounding-box &gt; rect,
.selected.node &gt; .new-look-state-node.has-errors &gt; .new-look-state-node &gt; rect,
.selected.node &gt; .new-look-state-node &gt; .bounding-box &gt; .new-look-state-node-sub &gt; rect
 {
  stroke: var(--color-border-status-info-fjyzd6, #0073bb);
  fill: var(--color-background-status-info-60ssq8, #f1faff);
  stroke-width: 1px;
}

.new-look-state-node-sub .item-source.not-specified {
  height: 15px;
  color: #687078;
  font-family: "Amazon Ember";
  font-size: 12px;
  letter-spacing: 0;
  line-height: 16px;
  font-weight: 400;
}
.new-look-state-node-sub .item-source .item-source_name{
  font-weight: 600;
}
.new-look-state-node-sub .item-source.not-specified .item-source_name{
  font-weight: 400;
}

.new-look-state-node-sub .item-source.not-specified {
  font-style: italic;
}

.new-look-state-node-sub &gt; rect,
.new-look-state-node &gt; .bounding-box &gt; rect {
  stroke: var(--color-border-control-default-ie1oqq, #687078);
  fill: #ffffff;
}

.new-look-graph .drag-source {
  opacity: 0.2;
}

.new-look-graph .edge, .new-look-graph path.starting-connection {
  stroke-width: 1px;
  stroke: var(--color-text-form-secondary-btuye6, #687078);
  marker-end: url(#large-arrowhead);
}

.new-look-graph .edge-label {
  cursor: pointer;
}

.new-look-graph .edge-label rect {
  stroke-width: 1px;
  stroke: var(--color-border-control-default-ie1oqq, #687078);
  fill: #fafafa;
}

.new-look-graph .edge-label.selected rect {
  stroke: var(--color-border-status-info-fjyzd6, #0073bb);
  fill: var(--color-background-status-info-60ssq8, #f1faff);
  stroke-width: 0.6px;
}



.new-look-graph .edge-label .label {
  fill: var(--color-text-form-secondary-btuye6, #687078);
  font-family: Amazon Ember, Arial, Roboto, Arial, sans-serif;
}

/* centering the shape text */
@-moz-document url-prefix() {
  .new-look-graph .shape + text,
  .new-look-graph .edge-label text {
    transform: translateY(3.5px);
  }
}

.new-look-graph .edge path {
  marker-end: url(#large-arrowhead) !important;
}

.new-look-graph .edge.selected path{
  stroke: var(--color-border-status-info-fjyzd6, #0073bb);
  stroke-width: 1.1px;
}

.new-look-graph .edge.dragging-over path, .new-look-graph  g.dragging-over .starting-connection {
  stroke: #5C86FF;
  stroke-width: 2px;
}

.new-look-graph .edge.dragging-over path, .new-look-graph .dragging-over path.starting-connection {
  marker-end: url(#large-highlighted-arrowhead) !important;
}

.new-look-graph .edge.dragging-over .edge-label text {
  fill: #5C86FF;
}

#large-highlighted-arrowhead {
  fill: #5C86FF;
}

#large-highlighted-arrowhead path {
  stroke: none;
}

.new-look-graph .edge.drop-not-supported path, g.drop-not-supported .starting-connection {
  stroke: red;
}

.new-look-graph .edge.drop-not-supported .edge-label text {
  fill: red;
}

.new-look-graph .edge.drop-not-supported path {
  marker-end: url(#large-error-arrowhead) !important;
}

#large-error-arrowhead {
  fill: red;
}

.node-container * &gt; .icon  {
  &gt; rect {
    fill: #fafafa;
  }
  &gt; line {
    stroke: #d5dbdb;
  }
}


.node.Placeholder.dragging-over rect {
  stroke: var(--color-border-status-info-fjyzd6, #0073bb);
  fill: var(--color-background-status-info-60ssq8, #f1faff);
  stroke-width: 2px;
}

.node.Placeholder.dragging-over .label {
  fill: var(--color-text-status-info-f9d9f2, #0073bb);
}

g.Placeholder rect {
  stroke-dasharray: 5 4;
  stroke: var(--color-border-dropdown-item-hover-t6obhh, #879596);
  fill: #ffffff;
  stroke-width: 1px;
}

g.Placeholder .label {
  font-style: italic;
  fill: var(--color-text-input-placeholder-lhl4lu, #687078);
}

.node.Placeholder.drop-not-supported rect {
  stroke: red;
}

.node.Placeholder.drop-not-supported .label {
  fill: red;
}
</style><style>.line2 { font-size: 14px }</style></svg><text x="-70.5" y="-83.5" class="line1"><tspan class="item-source" xml:space="preserve" text-anchor="start"><tspan>Item source</tspan><tspan class="item-source_name"><tspan>: JSON Payload</tspan></tspan></tspan></text></g><g class="content" transform="translate(-171,-144.5)"><g class="branch" transform="translate(20,124)"><g transform=""><g class="nodes"><g class="node-container" transform="translate(151,24.5)"><g class="sc-knuQbY ljLNUS node state Task" data-testid="graph-Split fastq ids by instrument run id" data-state-id="Split fastq ids by instrument run id" data-state-type="Task"><g class="new-look-state-node "><rect x="-151" y="-24.5" width="302" height="49" rx="3" ry="3"/><g class="handle" transform="translate(-151,-24.5)"><path d="M5,16 L5,34 M8,16 L8,34"/></g><g class="icon" transform="translate(-135,-24)"><rect fill="var(--color-background-container-header-etndi4, #fafafa)" x="0.0361026108" y="0.0181291967" width="48" height="48"/><line x1="47.5" y1="0.49122807" x2="47.5" y2="47.5" stroke="var(--color-board-placeholder-active-qurjro, #d5dbdb)" stroke-linecap="square"/><line x1="0.5" y1="0.49122807" x2="0.5" y2="47.5" stroke="var(--color-board-placeholder-active-qurjro, #d5dbdb)" stroke-linecap="square"/><use href="#icon-service-lam" aria-hidden="true"><title>Lambda</title></use></g><g class="text-lines" transform="translate(-79,-24.5)"><text transform="translate(0,17)" class="line1"><tspan xml:space="preserve" text-anchor="start">Lambda: Invoke</tspan></text><text transform="translate(0,35.5)" class="line2 label"><tspan xml:space="preserve" text-anchor="start">Split fastq ids by instrument run id</tspan></text></g></g></g></g><g class="node-container" transform="translate(151,92)"><g><circle class="sc-kCMKrZ keBXOz shape" r="8"/></g></g></g><g class="edges"><g class="sc-ERObt iCktvP edge"><path id="state-Split fastq ids by instrument run id:end:normal" d="M151,49L151,51.916666666666664C151,54.833333333333336,151,60.666666666666664,151,66.5C151,72.33333333333333,151,78.16666666666667,151,81.08333333333333L151,84" marker-end="url(#arrowhead)" fill="none"/></g></g></g></g><g class="sc-ERObt iCktvP"><path id="For each fastq id (Batched)-Split fastq ids by instrument run id" class="path starting-connection" d="M171,69L171,73.58333333333333C171,78.16666666666667,171,87.33333333333333,171,91.91666666666667C171,96.5,171,96.5,171,101.08333333333333C171,105.66666666666667,171,114.83333333333333,171,119.41666666666667L171,124" fill="none"/></g></g></g><g class="new-look-state-node "><rect x="-125.5" y="-144.5" width="251" height="49" rx="3" ry="3"/><g class="handle" transform="translate(-125.5,-144.5)"><path d="M5,16 L5,34 M8,16 L8,34"/></g><g class="icon" transform="translate(-109.5,-144)"><rect fill="var(--color-background-container-header-etndi4, #fafafa)" x="0.0361026108" y="0.0181291967" width="48" height="48"/><line x1="47.5" y1="0.49122807" x2="47.5" y2="47.5" stroke="var(--color-board-placeholder-active-qurjro, #d5dbdb)" stroke-linecap="square"/><line x1="0.5" y1="0.49122807" x2="0.5" y2="47.5" stroke="var(--color-board-placeholder-active-qurjro, #d5dbdb)" stroke-linecap="square"/><use href="#icon-flow-distributedmap"/></g><g class="text-lines" transform="translate(-53.5,-144.5)"><text transform="translate(0,17)" class="line1"><tspan xml:space="preserve" text-anchor="start">Map: JSON Payload</tspan></text><text transform="translate(0,35.5)" class="line2 label"><tspan xml:space="preserve" text-anchor="start">For each fastq id (Batched)</tspan></text></g></g></g></g></g><g class="node-container" transform="translate(522.5,1221.75)"><g class="sc-knuQbY ljLNUS node state container Map" data-state-id="For each instrument run id" data-state-type="Map"><g class="new-look-state-node "><g class="bounding-box" transform="translate(0,5)"><g class="shape new-look-state-node-sub"><rect rx="3" ry="3" x="-522.5" y="-566.75" width="1045" height="1128.5" class="sc-dJiZtA eTNMpM"/><rect x="-110" y="-522.75" width="220" height="26" class="sc-dJiZtA sc-epALIP eTNMpM jGUdjs"/><svg x="-95" y="-526.25" width="25" height="25" viewBox="0 -8 25 25" xmlns="http://www.w3.org/2000/svg"><g id="Symbols" stroke="none" stroke-width="1" fill="none" fill-rule="evenodd" opacity="0.867687044"><g id="ONE-MAP---graph---inline-map" transform="translate(-55.000000, -217.000000)" fill="#687078" fill-rule="nonzero"><g id="Group-15" transform="translate(36.000000, 213.000000)"><g id="script" transform="translate(19.000000, 4.000000)"><path d="M11.60121,15.4462891 C12.5601274,15.4462891 13.2010167,15.2896753 13.5238779,14.9764478 C13.8467393,14.6632203 14.0081699,14.0388817 14.0081699,13.1034319 L14.0081699,12.7383526 C14.0081699,12.1034319 14.1135348,10.6632203 14.3242646,10.4177176 C14.5349944,10.172215 14.9129549,10.0494637 15.4581458,10.0494637 L15.8177397,10.0494637 L15.8177397,6.83676525 L15.4581458,6.83676525 C14.9129549,6.83676525 14.5349944,6.71507213 14.3242646,6.47168589 C14.1135348,6.22829964 14.0081699,4.7870298 14.0081699,4.14787636 L14.0081699,3.782797 C14.0081699,2.84734726 13.8467393,2.22406684 13.5238779,1.91295573 C13.2010167,1.60184462 12.5601274,1.44628906 11.60121,1.44628906 L9.8177397,1.44628906 L9.8177397,3.65263827 L10.519528,3.65263827 C10.9255213,3.65263827 11.1971501,3.74364356 11.3344144,3.92565414 C11.4716788,4.10766472 11.540311,5.49708271 11.540311,6.09390811 L11.540311,6.42089224 C11.540311,7.11930494 11.6340761,7.61031023 11.8216063,7.89390811 C12.0091365,8.17750599 12.3464975,8.35951658 12.8336895,8.43993986 C12.3503642,8.52882875 12.0139698,8.71718853 11.8245063,9.00501922 C11.6350428,9.29284991 11.540311,9.7838552 11.540311,10.4780351 L11.540311,10.7796224 C11.540311,11.3849134 11.4707122,12.7785642 11.3315144,12.9605748 C11.1923168,13.1425854 10.9216547,13.2335906 10.519528,13.2335906 L9.8177397,13.2335906 L9.8177397,15.4462891 L11.60121,15.4462891 Z" id="}"/><path d="M3.03295652,15.4462891 C3.99187387,15.4462891 4.63276319,15.2896753 4.95562448,14.9764478 C5.27848577,14.6632203 5.43991641,14.0388817 5.43991641,13.1034319 L5.43991641,12.7383526 C5.43991641,12.1034319 5.54528132,10.6632203 5.75601114,10.4177176 C5.96674096,10.172215 6.34470133,10.0494637 6.88989225,10.0494637 L7.24948625,10.0494637 L7.24948625,6.83676525 L6.88989225,6.83676525 C6.34470133,6.83676525 5.96674096,6.71507213 5.75601114,6.47168589 C5.54528132,6.22829964 5.43991641,4.7870298 5.43991641,4.14787636 L5.43991641,3.782797 C5.43991641,2.84734726 5.27848577,2.22406684 4.95562448,1.91295573 C4.63276319,1.60184462 3.99187387,1.44628906 3.03295652,1.44628906 L1.24948625,1.44628906 L1.24948625,3.65263827 L1.95127455,3.65263827 C2.35726778,3.65263827 2.62889659,3.74364356 2.76616097,3.92565414 C2.90342535,4.10766472 2.97205754,4.49708271 2.97205754,5.09390811 L2.97205754,5.42089224 C2.97205754,6.11930494 3.06582265,7.61031023 3.25335285,7.89390811 C3.44088306,8.17750599 3.7782441,8.35951658 4.26543598,8.43993986 C3.7821107,8.52882875 3.44571631,8.71718853 3.25625281,9.00501922 C3.0667893,9.29284991 2.97205754,9.7838552 2.97205754,10.4780351 L2.97205754,10.7796224 C2.97205754,11.3849134 2.9024587,12.7785642 2.76326102,12.9605748 C2.62406334,13.1425854 2.35340119,13.2335906 1.95127455,13.2335906 L1.24948625,13.2335906 L1.24948625,15.4462891 L3.03295652,15.4462891 Z" id="}-copy" transform="translate(4.249486, 8.446289) scale(-1, 1) translate(-4.249486, -8.446289) "/></g></g></g></g></svg><text x="-70" y="-505.75" class="line1"><tspan class="item-source" xml:space="preserve" text-anchor="start"><tspan>Item source</tspan><tspan class="item-source_name"><tspan>: JSON Payload</tspan></tspan></tspan></text></g><g class="content" transform="translate(-522.5,-566.75)"><g class="branch" transform="translate(20,124)"><g transform=""><g class="nodes"><g class="node-container" transform="translate(381.25,24.5)"><g class="sc-knuQbY ljLNUS node state Pass" data-testid="graph-Set vars in map" data-state-id="Set vars in map" data-state-type="Pass"><g class="new-look-state-node "><rect x="-120" y="-24.5" width="240" height="49" rx="3" ry="3"/><g class="handle" transform="translate(-120,-24.5)"><path d="M5,16 L5,34 M8,16 L8,34"/></g><g class="icon" transform="translate(-104,-24)"><rect fill="var(--color-background-container-header-etndi4, #fafafa)" x="0.0361026108" y="0.0181291967" width="48" height="48"/><line x1="47.5" y1="0.49122807" x2="47.5" y2="47.5" stroke="var(--color-board-placeholder-active-qurjro, #d5dbdb)" stroke-linecap="square"/><line x1="0.5" y1="0.49122807" x2="0.5" y2="47.5" stroke="var(--color-board-placeholder-active-qurjro, #d5dbdb)" stroke-linecap="square"/><use href="#icon-flow-pass"/></g><g class="text-lines" transform="translate(-48,-24.5)"><text transform="translate(0,17)" class="line1"><tspan xml:space="preserve" text-anchor="start">Pass state</tspan></text><text transform="translate(0,35.5)" class="line2 label"><tspan xml:space="preserve" text-anchor="start">Set vars in map</tspan></text></g></g></g></g><g class="node-container" transform="translate(381.25,108.5)"><g class="sc-knuQbY ljLNUS node state Task" data-testid="graph-Generate steps function csv and upload to s3" data-state-id="Generate steps function csv and upload to s3" data-state-type="Task"><g class="new-look-state-node "><rect x="-184" y="-24.5" width="368" height="49" rx="3" ry="3"/><g class="handle" transform="translate(-184,-24.5)"><path d="M5,16 L5,34 M8,16 L8,34"/></g><g class="icon" transform="translate(-168,-24)"><rect fill="var(--color-background-container-header-etndi4, #fafafa)" x="0.0361026108" y="0.0181291967" width="48" height="48"/><line x1="47.5" y1="0.49122807" x2="47.5" y2="47.5" stroke="var(--color-board-placeholder-active-qurjro, #d5dbdb)" stroke-linecap="square"/><line x1="0.5" y1="0.49122807" x2="0.5" y2="47.5" stroke="var(--color-board-placeholder-active-qurjro, #d5dbdb)" stroke-linecap="square"/><use href="#icon-service-lam" aria-hidden="true"><title>Lambda</title></use></g><g class="text-lines" transform="translate(-112,-24.5)"><text transform="translate(0,17)" class="line1"><tspan xml:space="preserve" text-anchor="start">Lambda: Invoke</tspan></text><text transform="translate(0,35.5)" class="line2 label"><tspan xml:space="preserve" text-anchor="start">Generate steps function csv and upload to s3</tspan></text></g></g></g></g><g class="node-container" transform="translate(381.25,192.5)"><g class="sc-knuQbY ljLNUS node state Task" data-testid="graph-Run unarchiver" data-state-id="Run unarchiver" data-state-type="Task"><g class="new-look-state-node "><rect x="-124.5" y="-24.5" width="249" height="49" rx="3" ry="3"/><g class="handle" transform="translate(-124.5,-24.5)"><path d="M5,16 L5,34 M8,16 L8,34"/></g><g class="icon" transform="translate(-108.5,-24)"><rect fill="var(--color-background-container-header-etndi4, #fafafa)" x="0.0361026108" y="0.0181291967" width="48" height="48"/><line x1="47.5" y1="0.49122807" x2="47.5" y2="47.5" stroke="var(--color-board-placeholder-active-qurjro, #d5dbdb)" stroke-linecap="square"/><line x1="0.5" y1="0.49122807" x2="0.5" y2="47.5" stroke="var(--color-board-placeholder-active-qurjro, #d5dbdb)" stroke-linecap="square"/><use href="#icon-service-states" aria-hidden="true"><title>Step Functions</title></use></g><g class="text-lines" transform="translate(-52.5,-24.5)"><text transform="translate(0,17)" class="line1"><tspan xml:space="preserve" text-anchor="start">Step Functions: StartExecution</tspan></text><text transform="translate(0,35.5)" class="line2 label"><tspan xml:space="preserve" text-anchor="start">Run unarchiver</tspan></text></g></g></g></g><g class="node-container" transform="translate(642.5,276.5)"><g class="sc-knuQbY ljLNUS node state Task" data-testid="graph-ListObjectsV2" data-state-id="ListObjectsV2" data-state-type="Task"><g class="new-look-state-node "><rect x="-120" y="-24.5" width="240" height="49" rx="3" ry="3"/><g class="handle" transform="translate(-120,-24.5)"><path d="M5,16 L5,34 M8,16 L8,34"/></g><g class="icon" transform="translate(-104,-24)"><rect fill="var(--color-background-container-header-etndi4, #fafafa)" x="0.0361026108" y="0.0181291967" width="48" height="48"/><line x1="47.5" y1="0.49122807" x2="47.5" y2="47.5" stroke="var(--color-board-placeholder-active-qurjro, #d5dbdb)" stroke-linecap="square"/><line x1="0.5" y1="0.49122807" x2="0.5" y2="47.5" stroke="var(--color-board-placeholder-active-qurjro, #d5dbdb)" stroke-linecap="square"/><use href="#icon-service-s3" aria-hidden="true"><title>S3</title></use></g><g class="text-lines" transform="translate(-48,-24.5)"><text transform="translate(0,17)" class="line1"><tspan xml:space="preserve" text-anchor="start">S3: ListObjectsV2</tspan></text><text transform="translate(0,35.5)" class="line2 label"><tspan xml:space="preserve" text-anchor="start">ListObjectsV2</tspan></text></g></g></g></g><g class="node-container" transform="translate(120,614.75)"><g class="sc-knuQbY ljLNUS node state Pass" data-testid="graph-Add failed as output" data-state-id="Add failed as output" data-state-type="Pass"><g class="new-look-state-node "><rect x="-120" y="-24.5" width="240" height="49" rx="3" ry="3"/><g class="handle" transform="translate(-120,-24.5)"><path d="M5,16 L5,34 M8,16 L8,34"/></g><g class="icon" transform="translate(-104,-24)"><rect fill="var(--color-background-container-header-etndi4, #fafafa)" x="0.0361026108" y="0.0181291967" width="48" height="48"/><line x1="47.5" y1="0.49122807" x2="47.5" y2="47.5" stroke="var(--color-board-placeholder-active-qurjro, #d5dbdb)" stroke-linecap="square"/><line x1="0.5" y1="0.49122807" x2="0.5" y2="47.5" stroke="var(--color-board-placeholder-active-qurjro, #d5dbdb)" stroke-linecap="square"/><use href="#icon-flow-pass"/></g><g class="text-lines" transform="translate(-48,-24.5)"><text transform="translate(0,17)" class="line1"><tspan xml:space="preserve" text-anchor="start">Pass state</tspan></text><text transform="translate(0,35.5)" class="line2 label"><tspan xml:space="preserve" text-anchor="start">Add failed as output</tspan></text></g></g></g></g><g class="node-container" transform="translate(642.5,614.75)"><g class="sc-knuQbY ljLNUS node state container Map" data-state-id="For each output file" data-state-type="Map"><g class="new-look-state-node "><g class="bounding-box" transform="translate(0,5)"><g class="shape new-look-state-node-sub"><rect rx="3" ry="3" x="-362.5" y="-278.75" width="725" height="552.5" class="sc-dJiZtA eTNMpM"/><rect x="-107.5" y="-234.75" width="215" height="26" class="sc-dJiZtA sc-epALIP eTNMpM jGUdjs"/><svg x="-92.5" y="-238.25" width="25" height="25" viewBox="0 -8 25 25" xmlns="http://www.w3.org/2000/svg"><g id="Symbols" stroke="none" stroke-width="1" fill="none" fill-rule="evenodd" opacity="0.867687044"><g id="ONE-MAP---graph---inline-map" transform="translate(-55.000000, -217.000000)" fill="#687078" fill-rule="nonzero"><g id="Group-15" transform="translate(36.000000, 213.000000)"><g id="script" transform="translate(19.000000, 4.000000)"><path d="M11.60121,15.4462891 C12.5601274,15.4462891 13.2010167,15.2896753 13.5238779,14.9764478 C13.8467393,14.6632203 14.0081699,14.0388817 14.0081699,13.1034319 L14.0081699,12.7383526 C14.0081699,12.1034319 14.1135348,10.6632203 14.3242646,10.4177176 C14.5349944,10.172215 14.9129549,10.0494637 15.4581458,10.0494637 L15.8177397,10.0494637 L15.8177397,6.83676525 L15.4581458,6.83676525 C14.9129549,6.83676525 14.5349944,6.71507213 14.3242646,6.47168589 C14.1135348,6.22829964 14.0081699,4.7870298 14.0081699,4.14787636 L14.0081699,3.782797 C14.0081699,2.84734726 13.8467393,2.22406684 13.5238779,1.91295573 C13.2010167,1.60184462 12.5601274,1.44628906 11.60121,1.44628906 L9.8177397,1.44628906 L9.8177397,3.65263827 L10.519528,3.65263827 C10.9255213,3.65263827 11.1971501,3.74364356 11.3344144,3.92565414 C11.4716788,4.10766472 11.540311,5.49708271 11.540311,6.09390811 L11.540311,6.42089224 C11.540311,7.11930494 11.6340761,7.61031023 11.8216063,7.89390811 C12.0091365,8.17750599 12.3464975,8.35951658 12.8336895,8.43993986 C12.3503642,8.52882875 12.0139698,8.71718853 11.8245063,9.00501922 C11.6350428,9.29284991 11.540311,9.7838552 11.540311,10.4780351 L11.540311,10.7796224 C11.540311,11.3849134 11.4707122,12.7785642 11.3315144,12.9605748 C11.1923168,13.1425854 10.9216547,13.2335906 10.519528,13.2335906 L9.8177397,13.2335906 L9.8177397,15.4462891 L11.60121,15.4462891 Z" id="}"/><path d="M3.03295652,15.4462891 C3.99187387,15.4462891 4.63276319,15.2896753 4.95562448,14.9764478 C5.27848577,14.6632203 5.43991641,14.0388817 5.43991641,13.1034319 L5.43991641,12.7383526 C5.43991641,12.1034319 5.54528132,10.6632203 5.75601114,10.4177176 C5.96674096,10.172215 6.34470133,10.0494637 6.88989225,10.0494637 L7.24948625,10.0494637 L7.24948625,6.83676525 L6.88989225,6.83676525 C6.34470133,6.83676525 5.96674096,6.71507213 5.75601114,6.47168589 C5.54528132,6.22829964 5.43991641,4.7870298 5.43991641,4.14787636 L5.43991641,3.782797 C5.43991641,2.84734726 5.27848577,2.22406684 4.95562448,1.91295573 C4.63276319,1.60184462 3.99187387,1.44628906 3.03295652,1.44628906 L1.24948625,1.44628906 L1.24948625,3.65263827 L1.95127455,3.65263827 C2.35726778,3.65263827 2.62889659,3.74364356 2.76616097,3.92565414 C2.90342535,4.10766472 2.97205754,4.49708271 2.97205754,5.09390811 L2.97205754,5.42089224 C2.97205754,6.11930494 3.06582265,7.61031023 3.25335285,7.89390811 C3.44088306,8.17750599 3.7782441,8.35951658 4.26543598,8.43993986 C3.7821107,8.52882875 3.44571631,8.71718853 3.25625281,9.00501922 C3.0667893,9.29284991 2.97205754,9.7838552 2.97205754,10.4780351 L2.97205754,10.7796224 C2.97205754,11.3849134 2.9024587,12.7785642 2.76326102,12.9605748 C2.62406334,13.1425854 2.35340119,13.2335906 1.95127455,13.2335906 L1.24948625,13.2335906 L1.24948625,15.4462891 L3.03295652,15.4462891 Z" id="}-copy" transform="translate(4.249486, 8.446289) scale(-1, 1) translate(-4.249486, -8.446289) "/></g></g></g></g></svg><text x="-67.5" y="-217.75" class="line1"><tspan class="item-source" xml:space="preserve" text-anchor="start"><tspan>Item source</tspan><tspan class="item-source_name"><tspan>: JSON Payload</tspan></tspan></tspan></text></g><g class="content" transform="translate(-362.5,-278.75)"><g class="branch" transform="translate(20,124)"><g transform=""><g class="nodes"><g class="node-container" transform="translate(321.75,24.5)"><g class="sc-knuQbY ljLNUS node state Pass" data-testid="graph-Map Iter Vars" data-state-id="Map Iter Vars" data-state-type="Pass"><g class="new-look-state-node "><rect x="-120" y="-24.5" width="240" height="49" rx="3" ry="3"/><g class="handle" transform="translate(-120,-24.5)"><path d="M5,16 L5,34 M8,16 L8,34"/></g><g class="icon" transform="translate(-104,-24)"><rect fill="var(--color-background-container-header-etndi4, #fafafa)" x="0.0361026108" y="0.0181291967" width="48" height="48"/><line x1="47.5" y1="0.49122807" x2="47.5" y2="47.5" stroke="var(--color-board-placeholder-active-qurjro, #d5dbdb)" stroke-linecap="square"/><line x1="0.5" y1="0.49122807" x2="0.5" y2="47.5" stroke="var(--color-board-placeholder-active-qurjro, #d5dbdb)" stroke-linecap="square"/><use href="#icon-flow-pass"/></g><g class="text-lines" transform="translate(-48,-24.5)"><text transform="translate(0,17)" class="line1"><tspan xml:space="preserve" text-anchor="start">Pass state</tspan></text><text transform="translate(0,35.5)" class="line2 label"><tspan xml:space="preserve" text-anchor="start">Map Iter Vars</tspan></text></g></g></g></g><g class="node-container" transform="translate(321.75,108.5)"><g class="sc-knuQbY ljLNUS node state Task" data-testid="graph-Find Original Ingest ID" data-state-id="Find Original Ingest ID" data-state-type="Task"><g class="new-look-state-node "><rect x="-120" y="-24.5" width="240" height="49" rx="3" ry="3"/><g class="handle" transform="translate(-120,-24.5)"><path d="M5,16 L5,34 M8,16 L8,34"/></g><g class="icon" transform="translate(-104,-24)"><rect fill="var(--color-background-container-header-etndi4, #fafafa)" x="0.0361026108" y="0.0181291967" width="48" height="48"/><line x1="47.5" y1="0.49122807" x2="47.5" y2="47.5" stroke="var(--color-board-placeholder-active-qurjro, #d5dbdb)" stroke-linecap="square"/><line x1="0.5" y1="0.49122807" x2="0.5" y2="47.5" stroke="var(--color-board-placeholder-active-qurjro, #d5dbdb)" stroke-linecap="square"/><use href="#icon-service-lam" aria-hidden="true"><title>Lambda</title></use></g><g class="text-lines" transform="translate(-48,-24.5)"><text transform="translate(0,17)" class="line1"><tspan xml:space="preserve" text-anchor="start">Lambda: Invoke</tspan></text><text transform="translate(0,35.5)" class="line2 label"><tspan xml:space="preserve" text-anchor="start">Find Original Ingest ID</tspan></text></g></g></g></g><g class="node-container" transform="translate(321.75,192.5)"><g class="sc-knuQbY ljLNUS node state Task" data-testid="graph-Manually update ingest id" data-state-id="Manually update ingest id" data-state-type="Task"><g class="new-look-state-node "><rect x="-123" y="-24.5" width="246" height="49" rx="3" ry="3"/><g class="handle" transform="translate(-123,-24.5)"><path d="M5,16 L5,34 M8,16 L8,34"/></g><g class="icon" transform="translate(-107,-24)"><rect fill="var(--color-background-container-header-etndi4, #fafafa)" x="0.0361026108" y="0.0181291967" width="48" height="48"/><line x1="47.5" y1="0.49122807" x2="47.5" y2="47.5" stroke="var(--color-board-placeholder-active-qurjro, #d5dbdb)" stroke-linecap="square"/><line x1="0.5" y1="0.49122807" x2="0.5" y2="47.5" stroke="var(--color-board-placeholder-active-qurjro, #d5dbdb)" stroke-linecap="square"/><use href="#icon-service-lam" aria-hidden="true"><title>Lambda</title></use></g><g class="text-lines" transform="translate(-51,-24.5)"><text transform="translate(0,17)" class="line1"><tspan xml:space="preserve" text-anchor="start">Lambda: Invoke</tspan></text><text transform="translate(0,35.5)" class="line2 label"><tspan xml:space="preserve" text-anchor="start">Manually update ingest id</tspan></text></g></g></g></g><g class="node-container" transform="translate(140.5,293)"><g class="sc-knuQbY ljLNUS node state Wait" data-testid="graph-Wait 15 minutes after updating" data-state-id="Wait 15 minutes after updating" data-state-type="Wait"><g class="new-look-state-node "><rect x="-140.5" y="-24.5" width="281" height="49" rx="3" ry="3"/><g class="handle" transform="translate(-140.5,-24.5)"><path d="M5,16 L5,34 M8,16 L8,34"/></g><g class="icon" transform="translate(-124.5,-24)"><rect fill="var(--color-background-container-header-etndi4, #fafafa)" x="0.0361026108" y="0.0181291967" width="48" height="48"/><line x1="47.5" y1="0.49122807" x2="47.5" y2="47.5" stroke="var(--color-board-placeholder-active-qurjro, #d5dbdb)" stroke-linecap="square"/><line x1="0.5" y1="0.49122807" x2="0.5" y2="47.5" stroke="var(--color-board-placeholder-active-qurjro, #d5dbdb)" stroke-linecap="square"/><use href="#icon-flow-wait"/></g><g class="text-lines" transform="translate(-68.5,-24.5)"><text transform="translate(0,17)" class="line1"><tspan xml:space="preserve" text-anchor="start">Wait state</tspan></text><text transform="translate(0,35.5)" class="line2 label"><tspan xml:space="preserve" text-anchor="start">Wait 15 minutes after updating</tspan></text></g></g></g></g><g class="node-container" transform="translate(503,293)"><g class="sc-knuQbY ljLNUS node state Pass" data-testid="graph-Add failed messaged as output (ingest error)" data-state-id="Add failed messaged as output (ingest error)" data-state-type="Pass"><g class="new-look-state-node "><rect x="-182" y="-24.5" width="364" height="49" rx="3" ry="3"/><g class="handle" transform="translate(-182,-24.5)"><path d="M5,16 L5,34 M8,16 L8,34"/></g><g class="icon" transform="translate(-166,-24)"><rect fill="var(--color-background-container-header-etndi4, #fafafa)" x="0.0361026108" y="0.0181291967" width="48" height="48"/><line x1="47.5" y1="0.49122807" x2="47.5" y2="47.5" stroke="var(--color-board-placeholder-active-qurjro, #d5dbdb)" stroke-linecap="square"/><line x1="0.5" y1="0.49122807" x2="0.5" y2="47.5" stroke="var(--color-board-placeholder-active-qurjro, #d5dbdb)" stroke-linecap="square"/><use href="#icon-flow-pass"/></g><g class="text-lines" transform="translate(-110,-24.5)"><text transform="translate(0,17)" class="line1"><tspan xml:space="preserve" text-anchor="start">Pass state</tspan></text><text transform="translate(0,35.5)" class="line2 label"><tspan xml:space="preserve" text-anchor="start">Add failed messaged as output (ingest error)</tspan></text></g></g></g></g><g class="node-container" transform="translate(321.75,360.5)"><g><circle class="sc-kCMKrZ keBXOz shape" r="8"/></g></g></g><g class="edges"><g class="sc-ERObt iCktvP edge"><path id="state-Map Iter Vars:state-Find Original Ingest ID:normal" d="M321.75,49L321.75,51.916666666666664C321.75,54.833333333333336,321.75,60.666666666666664,321.75,66.5C321.75,72.33333333333333,321.75,78.16666666666667,321.75,81.08333333333333L321.75,84" marker-end="url(#arrowhead)" fill="none"/></g><g class="sc-ERObt iCktvP edge"><path id="state-Find Original Ingest ID:state-Manually update ingest id:normal" d="M321.75,133L321.75,135.91666666666666C321.75,138.83333333333334,321.75,144.66666666666666,321.75,150.5C321.75,156.33333333333334,321.75,162.16666666666666,321.75,165.08333333333334L321.75,168" marker-end="url(#arrowhead)" fill="none"/></g><g class="sc-ERObt iCktvP edge"><path id="state-Manually update ingest id:state-Wait 15 minutes after updating:normal" d="M233.37935323383084,217L217.89946102819238,221.29166666666666C202.41956882255388,225.58333333333334,171.45978441127696,234.16666666666666,155.9798922056385,242.75C140.5,251.33333333333334,140.5,259.9166666666667,140.5,264.2083333333333L140.5,268.5" marker-end="url(#arrowhead)" fill="none"/></g><g class="sc-ERObt iCktvP edge"><path id="state-Manually update ingest id:state-Add failed messaged as output (ingest error):catch:0" d="M410.12064676616916,217L425.6005389718077,221.29166666666666C441.0804311774461,225.58333333333334,472.040215588723,234.16666666666666,487.52010779436154,242.75C503,251.33333333333334,503,259.9166666666667,503,264.2083333333333L503,268.5" marker-end="url(#arrowhead)" fill="none"/><g data-testid="graph-Manually update ingest id-0" class="edge-label" transform="translate(487.52010779436154,242.75)"><rect x="-25" y="-8.25" width="50" height="16.5" class="sc-dNsVcS gnSsyP"/><text class="sc-fulCBj fPWNMB label"><tspan xml:space="preserve" text-anchor="middle" alignment-baseline="central">Catch #1</tspan><title>Catch #1</title></text></g></g><g class="sc-ERObt iCktvP edge"><path id="state-Wait 15 minutes after updating:end:normal" d="M140.5,317.5L140.5,320.4166666666667C140.5,323.3333333333333,140.5,329.1666666666667,169.38800300269693,336.14757651440243C198.27600600539384,343.1284863621382,256.0520120107877,351.2569727242764,284.9400150134846,355.32121590534547L313.82801801618155,359.3854590864145" marker-end="url(#arrowhead)" fill="none"/></g><g class="sc-ERObt iCktvP edge"><path id="state-Add failed messaged as output (ingest error):end:normal" d="M503,317.5L503,320.4166666666667C503,323.3333333333333,503,329.1666666666667,474.1119969973031,336.14757651440243C445.2239939946062,343.1284863621382,387.4479879892123,351.2569727242764,358.5599849865154,355.32121590534547L329.67198198381845,359.3854590864145" marker-end="url(#arrowhead)" fill="none"/></g></g></g></g><g class="sc-ERObt iCktvP"><path id="For each output file-Map Iter Vars" class="path starting-connection" d="M362.5,69L362.5,73.58333333333333C362.5,78.16666666666667,362.5,87.33333333333333,359.0416666666667,91.91666666666667C355.5833333333333,96.5,348.6666666666667,96.5,345.2083333333333,101.08333333333333C341.75,105.66666666666667,341.75,114.83333333333333,341.75,119.41666666666667L341.75,124" fill="none"/></g></g></g><g class="new-look-state-node "><rect x="-122.5" y="-278.75" width="245" height="49" rx="3" ry="3"/><g class="handle" transform="translate(-122.5,-278.75)"><path d="M5,16 L5,34 M8,16 L8,34"/></g><g class="icon" transform="translate(-106.5,-278.25)"><rect fill="var(--color-background-container-header-etndi4, #fafafa)" x="0.0361026108" y="0.0181291967" width="48" height="48"/><line x1="47.5" y1="0.49122807" x2="47.5" y2="47.5" stroke="var(--color-board-placeholder-active-qurjro, #d5dbdb)" stroke-linecap="square"/><line x1="0.5" y1="0.49122807" x2="0.5" y2="47.5" stroke="var(--color-board-placeholder-active-qurjro, #d5dbdb)" stroke-linecap="square"/><use href="#icon-flow-distributedmap"/></g><g class="text-lines" transform="translate(-50.5,-278.75)"><text transform="translate(0,17)" class="line1"><tspan xml:space="preserve" text-anchor="start">Map: JSON Payload</tspan></text><text transform="translate(0,35.5)" class="line2 label"><tspan xml:space="preserve" text-anchor="start">For each output file</tspan></text></g></g></g></g></g><g class="node-container" transform="translate(381.25,936.5)"><g><circle class="sc-kCMKrZ keBXOz shape" r="8"/></g></g></g><g class="edges"><g class="sc-ERObt iCktvP edge"><path id="state-Set vars in map:state-Generate steps function csv and upload to s3:normal" d="M381.25,49L381.25,51.916666666666664C381.25,54.833333333333336,381.25,60.666666666666664,381.25,66.5C381.25,72.33333333333333,381.25,78.16666666666667,381.25,81.08333333333333L381.25,84" marker-end="url(#arrowhead)" fill="none"/></g><g class="sc-ERObt iCktvP edge"><path id="state-Generate steps function csv and upload to s3:state-Run unarchiver:normal" d="M381.25,133L381.25,135.91666666666666C381.25,138.83333333333334,381.25,144.66666666666666,381.25,150.5C381.25,156.33333333333334,381.25,162.16666666666666,381.25,165.08333333333334L381.25,168" marker-end="url(#arrowhead)" fill="none"/></g><g class="sc-ERObt iCktvP edge"><path id="state-Run unarchiver:state-ListObjectsV2:normal" d="M505.75,212.51531100478468L528.5416666666666,216.17942583732057C551.3333333333334,219.84354066985645,596.9166666666666,227.17177033492825,619.7083333333334,233.7525518341308C642.5,240.33333333333334,642.5,246.16666666666666,642.5,249.08333333333334L642.5,252" marker-end="url(#arrowhead)" fill="none"/></g><g class="sc-ERObt iCktvP edge"><path id="state-Run unarchiver:state-Add failed as output:catch:0" d="M256.75,212.51531100478468L233.95833333333334,216.17942583732057C211.16666666666666,219.84354066985645,165.58333333333334,227.17177033492825,142.79166666666666,237.8358851674641C120,248.5,120,262.5,120,276.5C120,290.5,120,304.5,120,356.7916666666667C120,409.0833333333333,120,499.6666666666667,120,544.9583333333334L120,590.25" marker-end="url(#arrowhead)" fill="none"/><g data-testid="graph-Run unarchiver-0" class="edge-label" transform="translate(142.79166666666666,237.8358851674641)"><rect x="-25" y="-8.25" width="50" height="16.5" class="sc-dNsVcS gnSsyP"/><text class="sc-fulCBj fPWNMB label"><tspan xml:space="preserve" text-anchor="middle" alignment-baseline="central">Catch #1</tspan><title>Catch #1</title></text></g></g><g class="sc-ERObt iCktvP edge"><path id="state-ListObjectsV2:state-For each output file:normal" d="M642.5,301L642.5,303.9166666666667C642.5,306.8333333333333,642.5,312.6666666666667,642.5,318.5C642.5,324.3333333333333,642.5,330.1666666666667,642.5,333.0833333333333L642.5,336" marker-end="url(#arrowhead)" fill="none"/></g><g class="sc-ERObt iCktvP edge"><path id="state-Add failed as output:end:normal" d="M120,639.25L120,684.5416666666666C120,729.8333333333334,120,820.4166666666666,162.2146398093316,869.8288053530001C204.42927961866317,919.2409440393336,288.8585592373264,927.4818880786673,331.073199046658,931.6023600983341L373.2878388559896,935.722832118001" marker-end="url(#arrowhead)" fill="none"/></g><g class="sc-ERObt iCktvP edge"><path id="state-For each output file:end:normal" d="M642.5,893.5L642.5,896.4166666666666C642.5,899.3333333333334,642.5,905.1666666666666,600.2853601906684,912.2038053530001C558.0707203813369,919.2409440393336,473.64144076267365,927.4818880786673,431.426800953342,931.6023600983341L389.2121611440104,935.722832118001" marker-end="url(#arrowhead)" fill="none"/></g></g></g></g><g class="sc-ERObt iCktvP"><path id="For each instrument run id-Set vars in map" class="path starting-connection" d="M522.5,69L522.5,73.58333333333333C522.5,78.16666666666667,522.5,87.33333333333333,502.2916666666667,91.91666666666667C482.0833333333333,96.5,441.6666666666667,96.5,421.4583333333333,101.08333333333333C401.25,105.66666666666667,401.25,114.83333333333333,401.25,119.41666666666667L401.25,124" fill="none"/></g></g></g><g class="new-look-state-node "><rect x="-125" y="-566.75" width="250" height="49" rx="3" ry="3"/><g class="handle" transform="translate(-125,-566.75)"><path d="M5,16 L5,34 M8,16 L8,34"/></g><g class="icon" transform="translate(-109,-566.25)"><rect fill="var(--color-background-container-header-etndi4, #fafafa)" x="0.0361026108" y="0.0181291967" width="48" height="48"/><line x1="47.5" y1="0.49122807" x2="47.5" y2="47.5" stroke="var(--color-board-placeholder-active-qurjro, #d5dbdb)" stroke-linecap="square"/><line x1="0.5" y1="0.49122807" x2="0.5" y2="47.5" stroke="var(--color-board-placeholder-active-qurjro, #d5dbdb)" stroke-linecap="square"/><use href="#icon-flow-map"/></g><g class="text-lines" transform="translate(-53,-566.75)"><text transform="translate(0,17)" class="line1"><tspan xml:space="preserve" text-anchor="start">Map state</tspan></text><text transform="translate(0,35.5)" class="line2 label"><tspan xml:space="preserve" text-anchor="start">For each instrument run id</tspan></text></g></g></g></g></g><g class="node-container" transform="translate(522.5,1848)"><g class="sc-knuQbY ljLNUS node state Task" data-testid="graph-Update job database" data-state-id="Update job database" data-state-type="Task"><g class="new-look-state-node "><rect x="-120" y="-24.5" width="240" height="49" rx="3" ry="3"/><g class="handle" transform="translate(-120,-24.5)"><path d="M5,16 L5,34 M8,16 L8,34"/></g><g class="icon" transform="translate(-104,-24)"><rect fill="var(--color-background-container-header-etndi4, #fafafa)" x="0.0361026108" y="0.0181291967" width="48" height="48"/><line x1="47.5" y1="0.49122807" x2="47.5" y2="47.5" stroke="var(--color-board-placeholder-active-qurjro, #d5dbdb)" stroke-linecap="square"/><line x1="0.5" y1="0.49122807" x2="0.5" y2="47.5" stroke="var(--color-board-placeholder-active-qurjro, #d5dbdb)" stroke-linecap="square"/><use href="#icon-service-lam" aria-hidden="true"><title>Lambda</title></use></g><g class="text-lines" transform="translate(-48,-24.5)"><text transform="translate(0,17)" class="line1"><tspan xml:space="preserve" text-anchor="start">Lambda: Invoke</tspan></text><text transform="translate(0,35.5)" class="line2 label"><tspan xml:space="preserve" text-anchor="start">Update job database</tspan></text></g></g></g></g><g class="node-container" transform="translate(522.5,1929.5)"><g><circle class="sc-imwsjW jSmbeY shape" r="22"/><text class="sc-dQEtJz iIEA-dp label"><tspan xml:space="preserve" text-anchor="middle" alignment-baseline="central">End</tspan></text></g></g></g><g class="edges"><g class="sc-ERObt iCktvP edge"><path id="state-Set Vars:state-Wait:normal" d="M522.5,128L522.5,130.91666666666666C522.5,133.83333333333334,522.5,139.66666666666666,522.5,145.5C522.5,151.33333333333334,522.5,157.16666666666666,522.5,160.08333333333334L522.5,163" marker-end="url(#arrowhead)" fill="none"/></g><g class="sc-ERObt iCktvP edge"><path id="start:state-Set Vars" d="M522.5,44L522.5,46.916666666666664C522.5,49.833333333333336,522.5,55.666666666666664,522.5,61.5C522.5,67.33333333333333,522.5,73.16666666666667,522.5,76.08333333333333L522.5,79" marker-end="url(#arrowhead)" fill="none"/></g><g class="sc-ERObt iCktvP edge"><path id="state-Wait:state-Add Unarchiving job running event:normal" d="M522.5,212L522.5,214.91666666666666C522.5,217.83333333333334,522.5,223.66666666666666,522.5,229.5C522.5,235.33333333333334,522.5,241.16666666666666,522.5,244.08333333333334L522.5,247" marker-end="url(#arrowhead)" fill="none"/></g><g class="sc-ERObt iCktvP edge"><path id="state-Add Unarchiving job running event:state-For each fastq id (Batched):normal" d="M522.5,296L522.5,298.9166666666667C522.5,301.8333333333333,522.5,307.6666666666667,522.5,313.5C522.5,319.3333333333333,522.5,325.1666666666667,522.5,328.0833333333333L522.5,331" marker-end="url(#arrowhead)" fill="none"/></g><g class="sc-ERObt iCktvP edge"><path id="state-For each fastq id (Batched):state-For each instrument run id:normal" d="M522.5,620L522.5,622.9166666666666C522.5,625.8333333333334,522.5,631.6666666666666,522.5,637.5C522.5,643.3333333333334,522.5,649.1666666666666,522.5,652.0833333333334L522.5,655" marker-end="url(#arrowhead)" fill="none"/></g><g class="sc-ERObt iCktvP edge"><path id="state-For each instrument run id:state-Update job database:normal" d="M522.5,1788.5L522.5,1791.4166666666667C522.5,1794.3333333333333,522.5,1800.1666666666667,522.5,1806C522.5,1811.8333333333333,522.5,1817.6666666666667,522.5,1820.5833333333333L522.5,1823.5" marker-end="url(#arrowhead)" fill="none"/></g><g class="sc-ERObt iCktvP edge"><path id="state-Update job database:end:normal" d="M522.5,1872.5L522.5,1875.4166666666667C522.5,1878.3333333333333,522.5,1884.1666666666667,522.5,1890C522.5,1895.8333333333333,522.5,1901.6666666666667,522.5,1904.5833333333333L522.5,1907.5" marker-end="url(#arrowhead)" fill="none"/></g></g><defs><marker id="arrowhead" markerWidth="8" markerHeight="6" refX="7" refY="3" orient="auto" class="sc-deXhhX XhsUb"><polygon points="0 0, 8 3, 0 6"/></marker><marker id="highlighted-arrowhead" markerWidth="6" markerHeight="4" refX="5" refY="2" orient="auto" class="sc-deXhhX XhsUb"><polygon points="0 0, 6 2, 0 4"/></marker><marker id="error-arrowhead" markerWidth="6" markerHeight="4" refX="5" refY="2" orient="auto" class="sc-deXhhX XhsUb"><polygon points="0 0, 6 2, 0 4"/></marker><marker id="large-arrowhead" markerWidth="10" markerHeight="8" refX="9" refY="4" orient="auto" class="sc-deXhhX XhsUb"><polygon points="0 0, 10 4, 0 8"/></marker><marker id="large-highlighted-arrowhead" markerWidth="5.5" markerHeight="4" refX="4.5" refY="2" orient="auto" class="sc-deXhhX XhsUb"><polygon points="0 0, 5.5 2, 0 4"/></marker><marker id="large-error-arrowhead" markerWidth="10" markerHeight="8" refX="9" refY="4" orient="auto" class="sc-deXhhX XhsUb"><polygon points="0 0, 10 4, 0 8"/></marker><linearGradient x1="0%" y1="100%" x2="100%" y2="0%" id="gradient-orange"><stop stop-color="#C8511B" offset="0%"/><stop stop-color="#FF9900" offset="100%"/></linearGradient><linearGradient x1="0%" y1="100%" x2="100%" y2="0%" id="gradient-turquoise"><stop stop-color="#055F4E" offset="0%"/><stop stop-color="#56C0A7" offset="100%"/></linearGradient><linearGradient x1="0%" y1="100%" x2="100%" y2="0%" id="gradient-blue"><stop stop-color="#2E27AD" offset="0%"/><stop stop-color="#527FFF" offset="100%"/></linearGradient><linearGradient x1="0%" y1="100%" x2="100%" y2="0%" id="gradient-pink"><stop stop-color="#B0084D" offset="0%"/><stop stop-color="#FF4F8B" offset="100%"/></linearGradient><linearGradient x1="0%" y1="100%" x2="100%" y2="0%" id="gradient-red"><stop stop-color="#BD0816" offset="0%"/><stop stop-color="#FF5252" offset="100%"/></linearGradient><linearGradient x1="0%" y1="100%" x2="100%" y2="0%" id="gradient-green"><stop stop-color="#1B660F" offset="0%"/><stop stop-color="#6CAE3E" offset="100%"/></linearGradient><linearGradient x1="0%" y1="100%" x2="100%" y2="0%" id="gradient-purple"><stop stop-color="#4D27A8" offset="0%"/><stop stop-color="#A166FF" offset="100%"/></linearGradient><linearGradient x1="0%" y1="100%" x2="100%" y2="0%" id="gradient-grey"><stop stop-color="#DCDCDC" offset="0%"/><stop stop-color="#F6F5F7" offset="100%"/></linearGradient><linearGradient x1="0%" y1="100%" x2="100%" y2="0%" id="gradient-light-pink"><stop stop-color="#DD344C" offset="0%"/><stop stop-color="#DD344C" offset="100%"/></linearGradient>,<linearGradient x1="0%" y1="100%" x2="100%" y2="0%" id="gradient-ag"><stop stop-color="#BC1356" offset="0%"/><stop stop-color="#F34482" offset="100%"/></linearGradient><linearGradient x1="0%" y1="100%" x2="100%" y2="0%" id="gradient-athena"><stop stop-color="#5930B5" offset="0%"/><stop stop-color="#945DF2" offset="100%"/></linearGradient><linearGradient x1="0%" y1="100%" x2="100%" y2="0%" id="gradient-emr"><stop stop-color="#5930B5" offset="0%"/><stop stop-color="#945DF2" offset="100%"/></linearGradient><linearGradient x1="0%" y1="100%" x2="100%" y2="0%" id="gradient-glue"><stop stop-color="#5930B5" offset="0%"/><stop stop-color="#945DF2" offset="100%"/></linearGradient><linearGradient x1="0%" y1="100%" x2="100%" y2="0%" id="gradient-sns"><stop stop-color="#BC1356" offset="0%"/><stop stop-color="#F34482" offset="100%"/></linearGradient><linearGradient x1="0%" y1="100%" x2="100%" y2="0%" id="gradient-states"><stop stop-color="#BC1356" offset="0%"/><stop stop-color="#F34482" offset="100%"/></linearGradient><linearGradient x1="0%" y1="100%" x2="100%" y2="0%" id="gradient-generic"><stop stop-color="#ccc" offset="0%"/><stop stop-color="#ddd" offset="100%"/></linearGradient><g stroke="none" stroke-width="1" fill="none" fill-rule="evenodd" id="icon-flow-pass"><g transform="translate(10.500000, 8.750000)" fill="#0073BB" fill-rule="nonzero"><path d="M13.8217363,31.2803301 L13.7368454,31.3532508 L13.7368454,31.3532508 L13.6534426,31.407053 L13.6534426,31.407053 L13.6052878,31.4313839 L13.6052878,31.4313839 L13.5081671,31.4681458 L13.5081671,31.4681458 L13.4513711,31.4828395 L13.4513711,31.4828395 L13.3846755,31.4942127 L13.3846755,31.4942127 L13.3412428,31.498357 L13.3412428,31.498357 L13.241495,31.498357 L13.241495,31.498357 L13.1802045,31.4917588 L13.1802045,31.4917588 L13.1314644,31.4828361 L13.1314644,31.4828361 L13.0652921,31.4652652 L12.9776235,31.4314294 L12.9776235,31.4314294 L12.9293782,31.4070608 L12.9293782,31.4070608 L12.8294824,31.3409596 L12.7610762,31.2803301 L12.7610762,31.2803301 L8.26107616,26.7803301 C7.96818295,26.4874369 7.96818295,26.0125631 8.26107616,25.7196699 C8.52734273,25.4534034 8.94400641,25.4291973 9.2376179,25.6470518 L9.32173634,25.7196699 L12.5814063,28.979 L12.581,19.7495522 L3.5,19.75 C1.6314366,19.75 0.104873551,18.2857224 0.00517886273,16.4420352 L0,16.25 L0,12.25 C0,10.3814366 1.4642776,8.85487355 3.3079648,8.75517886 L3.5,8.75 L11.686,8.74955216 L11.686,10.2495522 L3.5,10.25 C2.4456382,10.25 1.58183488,11.0658778 1.50548574,12.1007377 L1.5,12.25 L1.5,16.25 C1.5,17.3043618 2.31587779,18.1681651 3.35073766,18.2445143 L3.5,18.25 L22.5,18.25 C23.5543618,18.25 24.4181651,17.4341222 24.4945143,16.3992623 L24.5,16.25 L24.5,12.25 C24.5,11.1956382 23.6841222,10.3318349 22.6492623,10.2554857 L22.5,10.25 L15.686,10.2495522 L15.686,8.74955216 L22.5,8.75 C24.3685634,8.75 25.8951264,10.2142776 25.9948211,12.0579648 L26,12.25 L26,16.25 C26,18.1185634 24.5357224,19.6451264 22.6920352,19.7448211 L22.5,19.75 L14.081,19.7495522 L14.0814063,28.899 L17.2610762,25.7196699 L17.3451946,25.6470518 C17.6388061,25.4291973 18.0554698,25.4534034 18.3217363,25.7196699 C18.5880029,25.9859365 18.6122089,26.4026002 18.3943545,26.6962117 L18.3217363,26.7803301 L13.8217363,31.2803301 Z" fill="false"/><polygon points="14.0818291 0 14.0818291 14.5 12.5818291 14.5 12.5818291 0" fill="false"/></g></g><g stroke-width="1" fill="none" fill-rule="evenodd" id="icon-flow-wait"><path d="M26.75,8.85825893 L26.75,10.3582589 L25,10.3582589 L25.0010332,13.2887186 C27.2395643,13.4625704 29.3159269,14.2145278 31.0809903,15.3954598 L32.3188424,13.6912711 L34.7458934,15.4546269 L33.3682881,17.3513419 C35.4674483,19.6240431 36.75,22.6622436 36.75,26 C36.75,33.0416306 31.0416306,38.75 24,38.75 C16.9583694,38.75 11.25,33.0416306 11.25,26 C11.25,22.7657627 12.4542298,19.8127884 14.4387685,17.5649977 L12.9047966,15.4546269 L15.3318476,13.6912711 L16.6858812,15.555197 C18.2387522,14.4657629 20.0456704,13.7138336 22.0001068,13.4059384 L22,10.3582589 L20.25,10.3582589 L20.25,8.85825893 L26.75,8.85825893 Z M24,14.75 C17.7867966,14.75 12.75,19.7867966 12.75,26 C12.75,32.2132034 17.7867966,37.25 24,37.25 C30.2132034,37.25 35.25,32.2132034 35.25,26 C35.25,19.7867966 30.2132034,14.75 24,14.75 Z M24.4666648,19.3452148 L24.466,26.499 L30.9387207,26.4993034 L30.9387207,27.9993034 L23.7166648,27.9993034 C23.336969,27.9993034 23.0231738,27.7171495 22.9735114,27.3510739 L22.9666648,27.2493034 L22.9666648,19.3452148 L24.4666648,19.3452148 Z" fill-rule="nonzero" fill="#0073BB"/></g><g stroke="none" stroke-width="1" fill="none" fill-rule="evenodd" id="icon-flow-map"><g transform="translate(7.250000, 12.250000)" fill="#0073BB" fill-rule="nonzero"><path d="M18.75 6.75C19.3023 6.75 19.75 7.19772 19.75 7.75V10.75C19.75 11.3023 19.3023 11.75 18.75 11.75H17V14.75H18.75C19.3023 14.75 19.75 15.1977 19.75 15.75V18.75C19.75 19.3023 19.3023 19.75 18.75 19.75H13.75C13.1977 19.75 12.75 19.3023 12.75 18.75V15.75C12.75 15.1977 13.1977 14.75 13.75 14.75H15.5V11.75H13.75C13.1977 11.75 12.75 11.3023 12.75 10.75V7.75C12.75 7.19772 13.1977 6.75 13.75 6.75H18.75ZM18.25 16.25H14.25V18.25H18.25V16.25ZM18.25 8.25H14.25V10.25H18.25V8.25Z" fill="false"/><path d="M4.36774 12.9782L4.25582 12.9874L4.16664 12.9828L4.0991 12.9721L4.01773 12.9507L3.91439 12.9084L3.84086 12.8662L3.80379 12.8403L3.71967 12.7677L0.21967 9.26773C-0.0732233 8.97484 -0.0732233 8.49996 0.21967 8.20707C0.485936 7.9408 0.9026 7.9166 1.19621 8.13445L1.28033 8.20707L3.5 10.427V5.75C3.5 2.64821 5.95602 0.120063 9.02944 0.00415208L9.25 0H24.25C27.3101 0 29.8183 2.39279 29.9906 5.418L29.9991 5.65629L30 7.75C30 8.16421 29.6642 8.5 29.25 8.5C28.8358 8.5 28.5 8.16421 28.5 7.75L28.4992 5.66855C28.4572 3.42607 26.6797 1.6129 24.4594 1.50507L24.25 1.5H9.25C6.97183 1.5 5.11231 3.29251 5.0049 5.54408L5 5.75V10.426L7.21967 8.20707L7.30379 8.13445C7.5974 7.9166 8.01406 7.9408 8.28033 8.20707C8.5466 8.47334 8.5708 8.89 8.35295 9.18361L8.28033 9.26773L4.78033 12.7677C4.7427 12.8054 4.70207 12.8382 4.65921 12.8661L4.58539 12.9085L4.50826 12.9417L4.44164 12.9626L4.36774 12.9782Z" fill="false"/><path d="M29.1567 12.4673L29.2442 12.4615L29.3612 12.4698L29.4099 12.4787L29.4761 12.4963L29.5349 12.5175L29.6052 12.5507L29.6962 12.6086L29.7803 12.6812L33.2803 16.1812C33.5732 16.4741 33.5732 16.949 33.2803 17.2419C33.0141 17.5081 32.5974 17.5323 32.3038 17.3145L32.2197 17.2419L30 15.0225V19.75C30 22.8518 27.544 25.3799 24.4706 25.4959L24.25 25.5H9.25C6.22365 25.5 3.73213 23.158 3.5153 20.1725L3.503 19.9226L3.5 17.75C3.5 17.3358 3.83579 17 4.25 17C4.6297 17 4.94349 17.2822 4.99315 17.6482L5 17.75L5.00248 19.8967C5.07738 22.112 6.8452 23.8894 9.04276 23.995L9.25 24H24.25C26.5282 24 28.3877 22.2075 28.4951 19.9559L28.5 19.75V15.0215L26.2803 17.2419L26.1962 17.3145C25.9026 17.5323 25.4859 17.5081 25.2197 17.2419C24.9534 16.9756 24.9292 16.5589 25.1471 16.2653L25.2197 16.1812L28.7197 12.6812L28.797 12.6137L28.8948 12.5507L28.965 12.5176L29.0427 12.4906L29.09 12.4787L29.1567 12.4673Z" fill="false"/></g></g><g stroke="none" stroke-width="1" fill="none" fill-rule="evenodd" id="icon-flow-distributedmap"><use href="#icon-flow-map"/></g><g stroke="none" stroke-width="1" fill="none" fill-rule="evenodd" id="icon-flow-distributedmap"><use href="#icon-flow-map"/></g><g stroke="none" stroke-width="1" fill="none" fill-rule="evenodd" id="icon-service-lam"><polygon fill="url(#gradient-orange)" fill-rule="nonzero" points="0 0 48 0 48 48 0 48"/><g transform="translate(11, 10)" fill="#FFFFFF"><path d="M26.5889213,27.8937088 L19.6925948,27.8937088 C19.4772752,27.8931074 19.2813916,27.7706914 19.1888047,27.578869 L9.43766764,7.45673404 L5.31218659,7.45673404 C5.00303594,7.45673404 4.75241983,7.20943823 4.75241983,6.90438337 L4.75241983,0.828526005 C4.75241983,0.523471153 5.00303594,0.276175335 5.31218659,0.276175335 L13.9325948,0.276175335 C14.1479143,0.276776788 14.3437979,0.399192787 14.4363848,0.591015217 L24.1427405,20.7131501 L26.5889213,20.7131501 C26.8980719,20.7131501 27.148688,20.9604459 27.148688,21.2655008 L27.148688,27.3413582 C27.148688,27.646413 26.8980719,27.8937088 26.5889213,27.8937088 Z M20.0452478,26.7890075 L26.0291545,26.7890075 L26.0291545,21.8178515 L23.7900875,21.8178515 C23.5747679,21.81725 23.3788843,21.694834 23.2862974,21.5030116 L13.5799417,1.38087667 L5.87755102,1.38087667 L5.87755102,6.3520327 L9.79591837,6.3520327 C10.0112379,6.35263416 10.2071215,6.47505016 10.2997085,6.66687259 L20.0452478,26.7890075 Z"/><path d="M8.10542274,27.8937099 L0.82845481,27.8937099 C0.635054571,27.8940907 0.455155006,27.7959347 0.352653061,27.634104 C0.243858391,27.4681848 0.233185428,27.2575536 0.324664723,27.0817533 L7.93749271,11.3894708 C8.03007964,11.1976484 8.22596323,11.0752324 8.4412828,11.0746298 L8.4412828,11.0746298 C8.65533487,11.0742082 8.85089022,11.1942751 8.94507289,11.3839473 L12.5891545,18.7799228 C12.6634688,18.931712 12.6634688,19.1086786 12.5891545,19.2604679 L8.6148105,27.5457279 C8.53147526,27.7523199 8.33072312,27.8894609 8.10542274,27.8937099 L8.10542274,27.8937099 Z M1.72408163,26.7890075 L7.75276968,26.7890075 L11.4640233,19.0560981 L8.44688047,12.8973881 L1.72408163,26.7890075 Z"/></g></g><g stroke="none" stroke-width="1" fill="none" fill-rule="evenodd" id="icon-service-states"><polygon fill="url(#gradient-states)" fill-rule="nonzero" points="0 0 48 0 48 48 0 48"/><g transform="translate(7.714286, 7.714286)" fill="#FFFFFF"><path d="M26.9059233,12.3928716 L26.9059233,8.47912299 C26.9059233,8.11887237 26.6121138,7.82683155 26.2496813,7.82683155 L17.0622929,7.82683155 L17.0622929,6.45701954 C18.7127174,6.12215613 19.8399485,4.59949006 19.6706454,2.9336515 C19.5013424,1.26781294 18.0905083,0 16.4060508,0 C14.7215933,0 13.3107593,1.26781294 13.1414562,2.9336515 C12.9721531,4.59949006 14.0993842,6.12215613 15.7498088,6.45701954 L15.7498088,7.82683155 L6.56242033,7.82683155 C6.19998786,7.82683155 5.9061783,8.11887237 5.9061783,8.47912299 L5.9061783,11.0882887 L0.656242033,11.0882887 C0.293809566,11.0882887 0,11.3803295 0,11.7405802 L0,15.0020373 C0,15.362288 0.293809566,15.6543288 0.656242033,15.6543288 L5.9061783,15.6543288 L5.9061783,16.9589116 L0.656242033,16.9589116 C0.293809566,16.9589116 0,17.2509525 0,17.6112031 L0,20.8726603 C0,21.2329109 0.293809566,21.5249517 0.656242033,21.5249517 L5.9061783,21.5249517 L5.9061783,24.1341174 C5.9061783,24.494368 6.19998786,24.7864089 6.56242033,24.7864089 L15.7498088,24.7864089 L15.7498088,26.1562209 C14.0993842,26.4910843 12.9721531,28.0137504 13.1414562,29.6795889 C13.3107593,31.3454275 14.7215933,32.6132404 16.4060508,32.6132404 C18.0905083,32.6132404 19.5013424,31.3454275 19.6706454,29.6795889 C19.8399485,28.0137504 18.7127174,26.4910843 17.0622929,26.1562209 L17.0622929,24.7864089 L26.2496813,24.7864089 C26.6121138,24.7864089 26.9059233,24.494368 26.9059233,24.1341174 L26.9059233,20.8726603 L25.5934393,20.8726603 L25.5934393,23.481826 L7.21866236,23.481826 L7.21866236,21.5249517 L12.4685986,21.5249517 C12.8310311,21.5249517 13.1248407,21.2329109 13.1248407,20.8726603 L13.1248407,17.6112031 C13.1248407,17.2509525 12.8310311,16.9589116 12.4685986,16.9589116 L7.21866236,16.9589116 L7.21866236,15.6543288 L12.4685986,15.6543288 C12.8310311,15.6543288 13.1248407,15.362288 13.1248407,15.0020373 L13.1248407,11.7405802 C13.1248407,11.3803295 12.8310311,11.0882887 12.4685986,11.0882887 L7.21866236,11.0882887 L7.21866236,9.13141442 L25.5934393,9.13141442 L25.5934393,12.3928716 L26.9059233,12.3928716 Z M18.3747769,29.3524489 C18.3747769,30.4332008 17.4933482,31.3093232 16.4060508,31.3093232 C15.3187534,31.3093232 14.4373247,30.4332008 14.4373247,29.3524489 C14.4373247,28.2716971 15.3187534,27.3955746 16.4060508,27.3955746 C17.4933482,27.3955746 18.3747769,28.2716971 18.3747769,29.3524489 L18.3747769,29.3524489 Z M11.8123566,18.2634945 L11.8123566,20.2203688 L1.31248407,20.2203688 L1.31248407,18.2634945 L11.8123566,18.2634945 Z M11.8123566,12.3928716 L11.8123566,14.3497459 L1.31248407,14.3497459 L1.31248407,12.3928716 L11.8123566,12.3928716 Z M14.4373247,3.2607915 C14.4373247,2.18003967 15.3187534,1.3039172 16.4060508,1.3039172 C17.4933482,1.3039172 18.3747769,2.18003967 18.3747769,3.2607915 C18.3747769,4.34154334 17.4933482,5.21766581 16.4060508,5.21766581 C15.3187534,5.21766581 14.4373247,4.34154334 14.4373247,3.2607915 Z"/><path d="M32.7614824,13.0452962 L19.4197022,13.0452962 C19.0512792,13.0452962 18.7526132,13.3292132 18.7526132,13.6794425 L18.7526132,18.1184669 C18.7526132,18.4686963 19.0512792,18.7526132 19.4197022,18.7526132 L32.7614824,18.7526132 C33.1299055,18.7526132 33.4285714,18.4686963 33.4285714,18.1184669 L33.4285714,13.6794425 C33.4285714,13.3292132 33.1299055,13.0452962 32.7614824,13.0452962 Z M32.0943934,17.4843206 L20.0867913,17.4843206 L20.0867913,14.3135889 L32.0943934,14.3135889 L32.0943934,17.4843206 Z"/></g></g><g stroke="none" stroke-width="1" fill="none" fill-rule="evenodd" id="icon-service-s3"><polygon fill="url(#gradient-green)" fill-rule="nonzero" points="0 0 48 0 48 48 0 48"/><g transform="translate(8 8) scale(0.033229491173416406)"><path d="M854.6 580.4L862 532.2C925.1 569.8 926.3 585.7 926.2 586.3 926 586.4 914.7 595.2 854.6 580.4L854.6 580.4ZM477.4 442.1C477.4 462.4 460.9 479 440.6 479 420.4 479 403.9 462.4 403.9 442.1 403.9 421.8 420.4 405.3 440.6 405.3 460.9 405.3 477.4 421.8 477.4 442.1L477.4 442.1ZM768.8 898.8C768.8 903.4 750.5 910.3 734.4 916.5L717.9 922.8C700.3 929.8 679.5 936.1 656.1 941.5 597.7 955 517.2 963.2 440.6 963.2 236.8 963.2 128.2 925.8 128.1 896.5L46.5 243.4C116.8 297.2 261.3 331.6 440.6 331.6 612.1 331.6 787.5 298.4 869.7 240L819.1 570.4C712.7 538 582.3 475.6 517.9 444.6L514 442.7C514 442.5 514.1 442.3 514.1 442.1 514.1 401.5 481.1 368.4 440.6 368.4 400.1 368.4 367.2 401.5 367.2 442.1 367.2 482.8 400.1 515.8 440.6 515.8 467.8 515.8 491.2 500.8 504 478.7 570.9 510.9 704.4 574.7 813.5 607.2L768.8 898.8ZM440.6 36.8C687.9 36.8 879.8 105.7 881.2 165.2L880.3 170.7C870.3 229.1 682.1 294.8 440.6 294.8 204.1 294.8 44 230.9 37.3 169.7L36.8 165.3C37.6 103.2 199.6 36.8 440.6 36.8L440.6 36.8ZM868 493.1L917.8 168.6C917.8 167.7 918 166.8 918 165.8 918 62 675.3 0 440.6 0 185.3 0 0 69.7 0 165.8 0 166.6 0.1 167.3 0.1 168.1L91.5 898.8C91.5 995.1 382.3 1000 440.6 1000 519.8 1000 603.4 991.6 664.3 977.4 689.5 971.6 712.1 964.8 731.4 957.1L747.4 950.9C778.6 939 805.5 928.8 805.3 901.6L849 617C873.3 622.9 893.3 625.9 909.3 625.9 930.8 625.9 945.4 620.6 954.2 610.1 961.6 601.2 964.4 590.6 962.3 579.3 957.6 554 928.1 527.2 868 493.1L868 493.1Z" fill="#FFFFFF"/></g></g></defs></g></svg>
